<?xml version="1.0" encoding="utf-8"?>
<!-- Generator: Adobe Illustrator 23.1.0, SVG Export Plug-In . SVG Version: 6.00 Build 0)  -->
<svg version="1.1" id="레이어_1" xmlns="http://www.w3.org/2000/svg" xmlns:xlink="http://www.w3.org/1999/xlink" x="0px"
	 y="0px" viewBox="0 0 93.5 93.5" style="enable-background:new 0 0 93.5 93.5;" xml:space="preserve">
<g>
	<path d="M28.9,18.2c0,2.5-2,4.5-4.5,4.5s-4.5-2-4.5-4.5v-12c0-2.5,2-4.5,4.5-4.5s4.5,2,4.5,4.5V18.2z M72.9,6.2
		c0-2.5-2-4.5-4.5-4.5s-4.5,2-4.5,4.5v12c0,2.5,2,4.5,4.5,4.5s4.5-2,4.5-4.5V6.2z M91.9,17.6v69.1c0,2.7-2.2,4.9-5,4.9h-80
		c-2.8,0-5-2.2-5-4.9V17.6c0-2.7,2.2-4.9,5-4.9h10v5.5c0,4.3,3.2,7.7,7.5,7.7s7.5-3.5,7.5-7.7v-5.5h29v5.5c0,4.3,3.2,7.7,7.5,7.7
		s7.5-3.5,7.5-7.7v-5.5h10.9C89.5,12.7,91.9,14.9,91.9,17.6z M83.9,35.6c0-1-0.9-1.9-2-1.9h-70c-1.1,0-2,0.8-2,1.9v46.2
		c0,1,0.9,1.9,2,1.9h70c1.1,0,2-0.8,2-1.9V35.6z"/>
</g>
</svg>
