<?xml version="1.0" encoding="utf-8"?>
<!-- Generator: Adobe Illustrator 23.1.0, SVG Export Plug-In . SVG Version: 6.00 Build 0)  -->
<svg version="1.1" id="레이어_1" xmlns="http://www.w3.org/2000/svg" xmlns:xlink="http://www.w3.org/1999/xlink" x="0px"
	 y="0px" viewBox="0 0 31.2 31.2" style="enable-background:new 0 0 31.2 31.2;" xml:space="preserve">
<g>
	<path d="M27.4,5.8h-24c-1.1,0-2,0.9-2,2v16c0,1.1,0.9,2,2,2h24c1.1,0,2-0.9,2-2v-16C29.4,6.7,28.5,5.8,27.4,5.8z M3.4,7.8h24l0,12
		h-24V7.8z M3.4,23.8v-2h24v2H3.4z"/>
	<path d="M24.4,9.8h-4c-0.6,0-1,0.4-1,1v4c0,0.6,0.4,1,1,1h4c0.6,0,1-0.4,1-1v-4C25.4,10.2,25,9.8,24.4,9.8z M23.4,13.8h-2v-2h2
		V13.8z"/>
</g>
</svg>
